<?xml version="1.0" encoding="utf-8"?>
<svg fill-rule="evenodd" height="90.00mm" id="svg2" preserveAspectRatio="xMidYMid" stroke-linejoin="round" stroke-width="28.222" version="1.1" viewBox="1640 10450 17500 9000" width="175.00mm" xml:space="preserve" xmlns="http://www.w3.org/2000/svg" xmlns:cc="http://creativecommons.org/ns#" xmlns:dc="http://purl.org/dc/elements/1.1/" xmlns:rdf="http://www.w3.org/1999/02/22-rdf-syntax-ns#" xmlns:svg="http://www.w3.org/2000/svg">
 <g id="g51" style="visibility:visible">
  <path d="m 10581,18739 -8005,0 0,-7433 16011,0 0,7433 -8006,0 z" id="Drawing_1_0" style="fill:none;stroke:#b3b3b3;stroke-linejoin:round"/>
 </g>
 <g id="g54" style="visibility:visible">
  <path d="m 2576,11305 0,7433" id="Drawing_2_0" style="fill:none;stroke:#b3b3b3;stroke-linejoin:round"/>
 </g>
 <g id="g57" style="visibility:visible">
  <path d="m 4355,11305 0,7433" id="Drawing_3_0" style="fill:none;stroke:#b3b3b3;stroke-linejoin:round"/>
 </g>
 <g id="g60" style="visibility:visible">
  <path d="m 6134,11305 0,7433" id="Drawing_4_0" style="fill:none;stroke:#b3b3b3;stroke-linejoin:round"/>
 </g>
 <g id="g63" style="visibility:visible">
  <path d="m 7913,11305 0,7433" id="Drawing_5_0" style="fill:none;stroke:#b3b3b3;stroke-linejoin:round"/>
 </g>
 <g id="g66" style="visibility:visible">
  <path d="m 9692,11305 0,7433" id="Drawing_6_0" style="fill:none;stroke:#b3b3b3;stroke-linejoin:round"/>
 </g>
 <g id="g69" style="visibility:visible">
  <path d="m 11470,11305 0,7433" id="Drawing_7_0" style="fill:none;stroke:#b3b3b3;stroke-linejoin:round"/>
 </g>
 <g id="g72" style="visibility:visible">
  <path d="m 13249,11305 0,7433" id="Drawing_8_0" style="fill:none;stroke:#b3b3b3;stroke-linejoin:round"/>
 </g>
 <g id="g75" style="visibility:visible">
  <path d="m 15028,11305 0,7433" id="Drawing_9_0" style="fill:none;stroke:#b3b3b3;stroke-linejoin:round"/>
 </g>
 <g id="g78" style="visibility:visible">
  <path d="m 16807,11305 0,7433" id="Drawing_10_0" style="fill:none;stroke:#b3b3b3;stroke-linejoin:round"/>
 </g>
 <g id="g81" style="visibility:visible">
  <path d="m 18587,11305 0,7433" id="Drawing_11_0" style="fill:none;stroke:#b3b3b3;stroke-linejoin:round"/>
 </g>
 <g id="g84" style="visibility:visible">
  <path d="m 18587,18738 -16011,0" id="Drawing_12_0" style="fill:none;stroke:#b3b3b3;stroke-linejoin:round"/>
 </g>
 <g id="g87" style="visibility:visible">
  <path d="m 18587,17499 -16011,0" id="Drawing_13_0" style="fill:none;stroke:#b3b3b3;stroke-linejoin:round"/>
 </g>
 <g id="g90" style="visibility:visible">
  <path d="m 18587,16260 -16011,0" id="Drawing_14_0" style="fill:none;stroke:#b3b3b3;stroke-linejoin:round"/>
 </g>
 <g id="g93" style="visibility:visible">
  <path d="m 18587,15021 -16011,0" id="Drawing_15_0" style="fill:none;stroke:#b3b3b3;stroke-linejoin:round"/>
 </g>
 <g id="g96" style="visibility:visible">
  <path d="m 18587,13783 -16011,0" id="Drawing_16_0" style="fill:none;stroke:#b3b3b3;stroke-linejoin:round"/>
 </g>
 <g id="g99" style="visibility:visible">
  <path d="m 18587,12544 -16011,0" id="Drawing_17_0" style="fill:none;stroke:#b3b3b3;stroke-linejoin:round"/>
 </g>
 <g id="g102" style="visibility:visible">
  <path d="m 18587,11304 -16011,0" id="Drawing_18_0" style="fill:none;stroke:#b3b3b3;stroke-linejoin:round"/>
 </g>
 <g id="g105" style="visibility:visible">
  <path d="m 2576,18738 0,150 0,-150 z" id="Drawing_19_0" style="fill:none;stroke:#b3b3b3;stroke-linejoin:round"/>
 </g>
 <g id="g108" style="visibility:visible">
  <path d="m 4355,18738 0,150 0,-150 z" id="Drawing_20_0" style="fill:none;stroke:#b3b3b3;stroke-linejoin:round"/>
 </g>
 <g id="g111" style="visibility:visible">
  <path d="m 6134,18738 0,150 0,-150 z" id="Drawing_21_0" style="fill:none;stroke:#b3b3b3;stroke-linejoin:round"/>
 </g>
 <g id="g114" style="visibility:visible">
  <path d="m 7913,18738 0,150 0,-150 z" id="Drawing_22_0" style="fill:none;stroke:#b3b3b3;stroke-linejoin:round"/>
 </g>
 <g id="g117" style="visibility:visible">
  <path d="m 9692,18738 0,150 0,-150 z" id="Drawing_23_0" style="fill:none;stroke:#b3b3b3;stroke-linejoin:round"/>
 </g>
 <g id="g120" style="visibility:visible">
  <path d="m 11470,18738 0,150 0,-150 z" id="Drawing_24_0" style="fill:none;stroke:#b3b3b3;stroke-linejoin:round"/>
 </g>
 <g id="g123" style="visibility:visible">
  <path d="m 13249,18738 0,150 0,-150 z" id="Drawing_25_0" style="fill:none;stroke:#b3b3b3;stroke-linejoin:round"/>
 </g>
 <g id="g126" style="visibility:visible">
  <path d="m 15028,18738 0,150 0,-150 z" id="Drawing_26_0" style="fill:none;stroke:#b3b3b3;stroke-linejoin:round"/>
 </g>
 <g id="g129" style="visibility:visible">
  <path d="m 16807,18738 0,150 0,-150 z" id="Drawing_27_0" style="fill:none;stroke:#b3b3b3;stroke-linejoin:round"/>
 </g>
 <g id="g132" style="visibility:visible">
  <path d="m 2426,18738 150,0 16011,0 0,150 0,-150" id="Drawing_28_0" style="fill:none;stroke:#b3b3b3;stroke-linejoin:round"/>
 </g>
 <g id="g135" style="visibility:visible">
  <path d="m 11320,18738 150,0" id="Drawing_29_0" style="fill:none;stroke:#b3b3b3;stroke-linejoin:round"/>
 </g>
 <g id="g138" style="visibility:visible">
  <path d="m 2426,17499 150,0" id="Drawing_30_0" style="fill:none;stroke:#b3b3b3;stroke-linejoin:round"/>
 </g>
 <g id="g141" style="visibility:visible">
  <path d="m 11320,17499 150,0" id="Drawing_31_0" style="fill:none;stroke:#b3b3b3;stroke-linejoin:round"/>
 </g>
 <g id="g144" style="visibility:visible">
  <path d="m 2426,16260 150,0" id="Drawing_32_0" style="fill:none;stroke:#b3b3b3;stroke-linejoin:round"/>
 </g>
 <g id="g147" style="visibility:visible">
  <path d="m 11320,16260 150,0" id="Drawing_33_0" style="fill:none;stroke:#b3b3b3;stroke-linejoin:round"/>
 </g>
 <g id="g150" style="visibility:visible">
  <path d="m 2426,15020 150,0" id="Drawing_34_0" style="fill:none;stroke:#b3b3b3;stroke-linejoin:round"/>
 </g>
 <g id="g153" style="visibility:visible">
  <path d="m 11320,15020 150,0" id="Drawing_35_0" style="fill:none;stroke:#b3b3b3;stroke-linejoin:round"/>
 </g>
 <g id="g156" style="visibility:visible">
  <path d="m 2426,13782 150,0" id="Drawing_36_0" style="fill:none;stroke:#b3b3b3;stroke-linejoin:round"/>
 </g>
 <g id="g159" style="visibility:visible">
  <path d="m 11320,13782 150,0" id="Drawing_37_0" style="fill:none;stroke:#b3b3b3;stroke-linejoin:round"/>
 </g>
 <g id="g162" style="visibility:visible">
  <path d="m 2426,12544 150,0" id="Drawing_38_0" style="fill:none;stroke:#b3b3b3;stroke-linejoin:round"/>
 </g>
 <g id="g165" style="visibility:visible">
  <path d="m 11320,12544 150,0" id="Drawing_39_0" style="fill:none;stroke:#b3b3b3;stroke-linejoin:round"/>
 </g>
 <g id="g168" style="visibility:visible">
  <path d="m 2426,11304 150,0" id="Drawing_40_0" style="fill:none;stroke:#b3b3b3;stroke-linejoin:round"/>
 </g>
 <g id="g171" style="visibility:visible">
  <path d="m 11320,11304 150,0" id="Drawing_41_0" style="fill:none;stroke:#b3b3b3;stroke-linejoin:round"/>
 </g>
 <g id="g174" style="visibility:visible">
  <path d="m 11470,18738 0,-7433" id="Drawing_42_0" style="fill:none;stroke:#b3b3b3;stroke-linejoin:round"/>
 </g>
 <g id="g177" style="visibility:visible">
  <path d="m 4710,18125 9,-12 9,-11 9,-12 9,-11 9,-12 9,-11 9,-12 9,-12 8,-11 9,-12 9,-12 9,-12 9,-12 9,-13 9,-12 9,-13 9,-13 9,-13 8,-13 9,-13 9,-14 9,-13 9,-14 9,-14 9,-15 9,-14 9,-15 9,-15 8,-15 9,-15 9,-15 9,-16 9,-16 9,-15 9,-17 9,-16 9,-16 8,-17 9,-17 9,-17 9,-17 9,-17 9,-17 9,-18 9,-18 9,-18 9,-18 8,-18 9,-18 9,-19 9,-19 9,-19 9,-19 9,-19 9,-19 9,-20 8,-20 9,-20 9,-20 9,-20 9,-21 9,-20 9,-21 9,-21 9,-21 9,-22 8,-21 9,-22 9,-22 9,-22 9,-22 9,-23 9,-22 9,-23 9,-23 8,-23 9,-23 9,-23 9,-24 9,-24 9,-24 9,-24 9,-24 9,-24 9,-25 8,-24 9,-25 9,-25 9,-25 9,-26 9,-25 9,-26 9,-25 9,-26 9,-26 8,-27 9,-26 9,-26 9,-27 9,-27 9,-27 9,-27 9,-27 9,-27 8,-27 9,-28 9,-28 9,-27 9,-28 9,-28 9,-29 9,-28 9,-28 9,-29 8,-28 9,-29 9,-29 9,-29 9,-29 9,-29 9,-29 9,-30 9,-29 8,-29 9,-30 9,-30 9,-29 9,-30 9,-30 9,-30 9,-30 9,-30 9,-31 8,-30 9,-30 9,-30 9,-31 9,-30 9,-31 9,-30 9,-31 9,-31 8,-30 9,-31 9,-31 9,-31 9,-30 9,-30 9,-31 9,-31 9,-31 9,-31 8,-31 9,-30 9,-31 9,-31 9,-31 9,-31 9,-31 9,-31 9,-30 9,-31 8,-31 9,-31 9,-30 9,-31 9,-31 9,-30 9,-31 9,-30 9,-31 8,-30 9,-30 9,-31 9,-30 9,-30 9,-30 9,-30 9,-30 9,-29 9,-30 8,-29 9,-30 9,-29 9,-30 9,-29 9,-29 9,-29 9,-28 9,-29 8,-29 9,-28 9,-28 9,-28 9,-28 9,-28 9,-28 9,-27 9,-28 9,-27 8,-27 9,-27 9,-27 9,-26 9,-27 9,-26 9,-26 9,-26 9,-26 8,-25 9,-25 9,-26 9,-24 9,-25 9,-25 9,-24 9,-24 9,-24 9,-23 8,-24 9,-23 9,-23 9,-22 9,-23 9,-22 9,-22 9,-22 9,-21 9,-22 8,-20 9,-21 9,-21 9,-20 9,-20 9,-19 9,-20 9,-19 9,-19 8,-18 9,-19 9,-18 9,-18 9,-17 9,-17 9,-17 9,-17 9,-16 9,-16 8,-16 9,-15 9,-15 9,-15 9,-15 9,-14 9,-14 9,-13 9,-14 8,-13 9,-12 9,-13 9,-12 9,-11 9,-12 9,-11 9,-11 9,-10 9,-10 8,-10 9,-9 9,-9 9,-9 9,-9 9,-8 9,-7 9,-8 9,-7 9,-7 8,-6 9,-6 9,-6 9,-6 9,-5 9,-4 9,-5 9,-4 9,-4 8,-3 9,-3 9,-3 9,-2 9,-2 9,-2 9,-2 9,-1 9,0 9,-1 8,0 9,0 9,1 9,1 9,1 9,2 9,2 9,2 9,3 8,3 9,3 9,4 9,4 9,4 9,5 9,5 9,5 9,5 9,6 8,6 9,7 9,7 9,7 9,8 9,7 9,8 9,9 9,9 8,9 9,9 9,10 9,10 9,10 9,10 9,11 9,11 9,12 9,11 8,12 9,13 9,12 9,13 9,13 9,14 9,14 9,14 9,14 9,14 8,15 9,15 9,16 9,15 9,16 9,16 9,17 9,16 9,17 8,17 9,18 9,17 9,18 9,18 9,18 9,19 9,19 9,19 9,19 8,19 9,20 9,20 9,20 9,20 9,21 9,20 9,21 9,21 8,22 9,21 9,22 9,22 9,22 9,22 9,22 9,23 9,23 9,23 8,23 9,23 9,23 9,24 9,23 9,24 9,24 9,24 9,25 8,24 9,25 9,24 9,25 9,25 9,25 9,25 9,26 9,25 9,26 8,25 9,26 9,26 9,26 9,26 9,26 9,26 9,27 9,26 9,26 8,27 9,27 9,26 9,27 9,27 9,27 9,27 9,27 9,27 8,27 9,27 9,27 9,28 9,27 9,27 9,28 9,27 9,28 9,27 8,28 9,27 9,28 9,27 9,28 9,27 9,28 9,28 9,27 8,28 9,27 9,28 9,28 9,27 9,28 9,27 9,28 9,27 9,28 8,28 9,27 9,27 9,28 9,27 9,28 9,26 9,27 9,27 8,28 9,27 9,27 9,27 9,27 9,27 9,27 9,27 9,27 9,26 8,27 9,27 9,26 9,27 9,26 9,26 9,27 9,26 9,26 9,26 8,26 9,26 9,26 9,25 9,26 9,26 9,25 9,25 9,26 8,25 9,25 9,25 9,25 9,25 9,24 9,25 9,25 9,24 9,24 8,24 9,25 9,24 9,23 9,24 9,24 9,23 9,24 9,23 8,24 9,23 9,23 9,23 9,22 9,23 9,23 9,22 9,22 9,22 8,23 9,21 9,22 9,22 9,22 9,21 9,21 9,22 9,21 8,21 9,20 9,21 9,21 9,20 9,20 9,21 9,20 9,20 9,19 8,20 9,20 9,19 9,19 9,20 9,19 9,19 9,18 9,19 9,19 8,18 9,18 9,18 9,18 9,18 9,18 9,18 9,17 9,17 8,18 9,17 9,17 9,17 9,16 9,17 9,16 9,17 9,16 9,16 8,16 9,16 9,15 9,16 9,15 9,16 9,15 9,15 9,15 8,14 9,15 9,15 9,14 9,14 9,15 9,14 9,14 9,13 9,14 8,14 9,13 9,13 9,14 9,13 9,13 9,12 9,13 9,13 8,12 9,13 9,12 9,12 9,12 9,12 9,12 9,11 9,12 9,11 8,12 9,11 9,11 9,11 9,11 9,11 9,10 9,11 9,10 9,11 8,10 9,10 9,10 9,10 9,10 9,10 9,9 9,10 9,9 8,10 9,9 9,9 9,9 9,9 9,9 9,9 9,8 9,9 9,8 8,9 9,8 9,8 9,8 9,8 9,8 9,8 9,8 9,7 8,8 9,7 9,8 9,7 9,7 9,7 9,7 9,7 9,7 8,7 9,7 9,7 9,6 9,7 8,6 9,6 9,7 9,6 9,6 9,6 8,6 9,6 9,6 9,5 9,6 9,6 9,5 9,6 9,5 9,5 9,6 9,5 9,5 8,5 9,5 9,5 9,5 9,5 9,4 8,5 9,5 9,4 9,5 8,4 9,4 9,5 9,4 8,4 9,4 9,4 9,4 9,4 9,4 9,4 9,4 9,4 9,4 9,3 9,4 9,4 10,3 9,4 9,3 10,4 9,3 10,4 9,3 10,3 9,4 9,3 9,3 9,3 9,3 9,3 8,3 9,2 8,3 8,3 8,2 7,3 7,2 8,3 6,2 7,2 7,2 7,2 7,3 7,2 8,2 15,4 9,2 9,3 9,2 10,2 11,3 12,2 12,3 13,2 14,3 15,3 16,3 17,3 17,3 18,3 18,3 19,4 19,3 20,3 19,3 19,4 20,3 19,3 19,3 18,3 18,2 17,3 17,3 16,2 15,2 14,2 13,2 12,1 12,2 11,1 10,1 9,1 9,1 9,1 15,2 8,0 7,1 7,0 14,1 7,1 7,0 7,1 14,0 8,1 8,1 8,0 9,1 8,0 9,1 9,1 9,0 9,1 9,1 10,0 9,1 9,1 10,0 9,1 10,1 9,0 9,1 10,0 9,1 9,1 9,0 9,1 10,0 8,1 9,0 9,1 9,0 9,1 9,0 9,0 8,1 9,0 9,0 9,1 8,0 9,1 9,0 9,0 8,1 9,0 9,0 9,1 9,0 9,0 9,1 8,0 9,0 9,1 18,0 9,0 9,1 9,0 9,0 9,1 9,0 9,0 9,0 9,1 8,0 9,0 9,0 9,1 9,0 9,0 9,0 9,0 9,1 9,0 8,0 9,0 9,0 9,1 9,0 9,0 9,0 9,0 9,0" id="Drawing_43_0" style="fill:none;stroke:#ffd320;stroke-width:80;stroke-linejoin:round"/>
 </g>
 <g id="g180" style="visibility:visible">
  <path d="m 4888,18334 9,-6 9,-7 9,-6 9,-7 9,-7 9,-6 9,-7 9,-6 8,-7 9,-7 9,-7 9,-6 9,-7 9,-7 9,-7 9,-7 9,-8 8,-7 9,-7 9,-8 9,-7 9,-8 9,-8 9,-8 9,-7 9,-9 9,-8 8,-8 9,-8 9,-9 9,-8 9,-9 9,-8 9,-9 9,-9 9,-9 8,-9 9,-9 9,-10 9,-9 9,-9 9,-10 9,-9 9,-10 9,-10 9,-9 8,-10 9,-10 9,-10 9,-11 9,-10 9,-10 9,-11 9,-10 9,-11 8,-11 9,-10 9,-11 9,-11 9,-11 9,-12 9,-11 9,-11 9,-12 9,-11 8,-12 9,-12 9,-12 9,-12 9,-12 9,-12 9,-12 9,-12 9,-13 9,-12 8,-13 9,-13 9,-12 9,-13 9,-13 9,-13 9,-13 9,-14 9,-13 8,-14 9,-13 9,-14 9,-14 9,-13 9,-14 9,-14 9,-14 9,-15 9,-14 8,-14 9,-15 9,-14 9,-15 9,-15 9,-15 9,-15 9,-15 9,-15 8,-15 9,-15 9,-16 9,-15 9,-16 9,-15 9,-16 9,-16 9,-16 9,-16 8,-16 9,-16 9,-17 9,-16 9,-16 9,-17 9,-16 9,-17 9,-17 8,-17 9,-17 9,-17 9,-17 9,-17 9,-17 9,-17 9,-18 9,-17 9,-18 8,-17 9,-18 9,-18 9,-18 9,-18 9,-17 9,-19 9,-18 9,-18 9,-18 8,-18 9,-19 9,-18 9,-19 9,-18 9,-19 9,-19 9,-18 9,-19 8,-19 9,-19 9,-19 9,-19 9,-19 9,-19 9,-19 9,-20 9,-19 9,-19 8,-20 9,-19 9,-20 9,-19 9,-20 9,-19 9,-20 9,-20 9,-20 8,-19 9,-20 9,-20 9,-20 9,-20 9,-20 9,-20 9,-20 9,-20 9,-20 8,-20 9,-20 9,-20 9,-20 9,-20 9,-20 9,-21 9,-20 9,-20 8,-20 9,-20 9,-21 9,-20 9,-20 9,-20 9,-21 9,-20 9,-20 9,-21 8,-20 9,-20 9,-20 9,-21 9,-20 9,-20 9,-20 9,-21 9,-20 9,-20 8,-20 9,-20 9,-20 9,-21 9,-20 9,-20 9,-20 9,-20 9,-20 8,-20 9,-20 9,-20 9,-19 9,-20 9,-20 9,-20 9,-19 9,-20 9,-20 8,-19 9,-19 9,-19 9,-20 9,-19 9,-19 9,-20 9,-19 9,-19 8,-19 9,-19 9,-19 9,-19 9,-19 9,-19 9,-18 9,-19 9,-18 9,-19 8,-18 9,-19 9,-18 9,-18 9,-18 9,-18 9,-18 9,-18 9,-18 9,-17 8,-18 9,-18 9,-17 9,-17 9,-17 9,-18 9,-17 9,-17 9,-16 8,-17 9,-17 9,-16 9,-17 9,-16 9,-16 9,-16 9,-16 9,-16 9,-16 8,-15 9,-16 9,-15 9,-15 9,-16 9,-15 9,-14 9,-15 9,-15 8,-14 9,-15 9,-14 9,-14 9,-14 9,-14 9,-14 9,-13 9,-14 9,-13 8,-13 9,-13 9,-13 9,-13 9,-13 9,-12 9,-12 9,-13 9,-12 8,-12 9,-11 9,-12 9,-11 9,-12 9,-11 9,-11 9,-11 9,-10 9,-11 8,-10 9,-11 9,-10 9,-10 9,-9 9,-10 9,-9 9,-10 9,-9 9,-9 8,-8 9,-9 9,-8 9,-9 9,-8 9,-8 9,-7 9,-8 9,-7 8,-8 9,-7 9,-7 9,-7 9,-6 9,-7 9,-6 9,-6 9,-6 9,-6 8,-5 9,-6 9,-5 9,-5 9,-5 9,-4 9,-5 9,-4 9,-5 8,-4 9,-3 9,-4 9,-4 9,-3 9,-3 9,-3 9,-3 9,-2 9,-3 8,-2 9,-2 9,-2 9,-2 9,-1 9,-2 9,-1 9,-1 9,-1 8,-1 9,0 9,0 9,-1 9,0 9,1 9,0 9,1 9,0 9,1 8,1 18,3 9,1 9,2 9,2 9,2 9,2 9,3 9,2 8,3 9,3 9,3 9,3 9,4 9,3 9,4 9,4 9,4 8,4 9,5 9,4 9,5 9,5 9,5 9,5 9,5 9,6 9,6 8,6 9,6 9,6 9,6 9,6 9,7 9,7 9,7 9,7 8,7 9,7 9,8 9,8 9,7 9,8 9,9 9,8 9,8 9,9 8,8 9,9 9,9 9,9 9,10 9,9 9,9 9,10 9,10 8,10 9,10 9,10 9,10 9,11 9,10 9,11 9,11 9,10 9,12 8,11 9,11 9,11 9,12 9,11 9,12 9,12 9,12 9,12 9,12 8,13 9,12 9,13 9,12 9,13 9,13 9,13 9,13 9,13 8,13 9,14 9,13 9,14 9,13 9,14 9,14 9,14 9,14 9,14 8,14 9,15 9,14 9,15 9,14 9,15 9,14 9,15 9,15 8,15 9,15 9,15 9,15 9,15 9,16 9,15 9,16 9,15 9,16 8,15 9,16 9,16 9,16 9,15 9,16 9,16 9,16 9,16 8,17 9,16 9,16 9,16 9,17 9,16 9,17 9,16 9,17 9,16 8,17 9,17 9,16 9,17 9,17 9,17 9,17 9,17 9,17 9,17 8,17 9,17 9,17 9,17 9,17 9,16 9,17 9,17 9,18 8,17 9,17 9,17 9,18 9,17 9,17 9,18 9,17 9,17 9,18 8,17 9,17 9,18 9,17 9,17 9,18 9,17 9,18 9,17 8,17 9,18 9,17 9,18 9,17 9,17 9,18 9,17 9,17 9,18 8,17 9,18 9,17 9,17 9,18 9,17 9,17 9,17 9,18 8,17 9,17 9,17 9,18 9,17 9,17 9,17 9,17 9,17 9,17 8,17 9,17 9,17 9,17 9,17 9,17 9,17 9,17 9,16 9,17 8,17 9,16 9,17 9,17 9,16 9,17 9,16 9,17 9,16 8,17 9,16 9,17 9,16 9,16 9,16 9,16 9,17 9,16 9,16 8,16 9,16 9,16 9,15 9,16 9,16 9,16 9,15 9,16 8,16 9,15 9,16 9,15 9,15 9,16 9,15 9,15 9,15 9,16 8,15 9,15 9,15 9,15 8,14 9,15 9,15 9,15 9,14 9,15 8,14 9,15 9,14 9,15 9,14 9,14 9,14 9,14 9,14 8,14 9,14 9,14 9,14 9,14 9,14 9,13 9,14 9,13 9,14 8,13 9,14 9,13 9,13 9,13 9,13 9,13 9,13 9,13 8,13 9,13 9,12 9,13 9,13 9,12 9,13 9,12 9,12 9,13 8,12 9,12 9,12 9,12 9,12 9,12 9,12 9,12 9,11 8,12 9,12 9,11 9,12 9,11 9,11 9,12 9,11 9,11 9,11 8,11 9,11 9,11 9,11 9,10 9,11 9,11 9,10 9,11 9,10 8,11 9,10 9,10 9,10 9,11 9,10 9,10 9,9 9,10 8,10 9,10 9,10 9,9 9,10 9,9 9,10 9,9 9,9 9,10 8,9 9,9 9,9 9,9 9,9 9,9 9,9 9,8 9,9 8,9 9,8 9,9 9,8 9,9 9,8 9,8 9,9 9,8 9,8 8,8 9,8 9,8 9,8 9,8 9,8 9,7 9,8 9,8 8,7 9,8 9,7 9,7 9,8 9,7 9,7 9,7 9,8 9,7 8,7 9,7 9,6 9,7 9,7 9,7 9,7 9,6 9,7 9,6 8,7 9,6 9,7 9,6 9,6 9,6 9,7 9,6 9,6 8,6 9,6 9,6 9,6 9,5 9,6 9,6 9,6 9,5 9,6 8,6 9,5 9,5 9,6 9,5 9,6 9,5 9,5 9,5 8,5 9,6 9,5 9,5 9,5 9,4 9,5 9,5 9,5 9,5 8,4 9,5 9,5 9,4 9,5 9,4 9,5 9,4 9,5 8,4 9,4 9,5 9,4 9,4 9,4 9,4 9,4 9,4 9,4 8,4 9,4 9,4 9,4 9,4 9,4 9,4 9,3 9,4 9,4 8,3 9,4 9,3 9,4 9,3 9,4 9,3 9,3 9,4 8,3 9,3 9,4 9,3 9,3 9,3 9,3 9,3 9,3 9,3 8,3 9,3 9,3 9,3 9,3 9,3 9,3 9,3 9,2 8,3 9,3 9,3 9,2 9,3 9,3 9,2 9,3 9,2 9,3 8,2 9,3 9,2 9,3 9,2 9,2 9,3 9,2 9,2 8,2 9,3 9,2 9,2 9,2 9,2 9,2 9,3 9,2 17,4 9,2 9,2 9,2 9,2 9,2 9,1 9,2 9,2 9,2 8,2 9,2 9,1 9,2 9,2 9,2 9,1 9,2 9,2 8,1 9,2 9,2 9,1 9,2 9,1 9,2 9,1 9,2 9,1 8,2 9,1 9,2 9,1 9,1 9,2 9,1 9,2 9,1 8,1 9,2 9,1 9,1 9,1 9,2 9,1 9,1 9,1 9,2 8,1 9,1 9,1 9,1 9,1 9,2 9,1 9,1 9,1 8,1 9,1 9,1 9,1 9,1 9,1 18,2 9,1 9,1 8,1 9,1 9,1 9,1 9,1 9,0 9,1 9,1 9,1 9,1 8,1 9,0 9,1 9,1 9,1 9,1 9,0 9,1 9,1 8,1 9,0 9,1 9,1 9,1 9,0 9,1 9,1 9,0 9,1 8,1 9,0 9,1 9,1 9,0 9,1 9,1 9,0 9,1 8,0 9,1 9,0 9,1 9,1 9,0 9,1 9,0 9,1 9,0 8,1 9,0 9,1 9,0 9,1 9,0 9,1 9,0 9,1 8,0 9,1 9,0 18,1 9,0 9,1 9,0 9,1 9,0 8,1 9,0 9,0 9,1 9,0 9,0 9,1 9,0 9,1 9,0 8,0 9,1 9,0 9,0 9,1 9,0 9,0 9,1 9,0 8,0 9,1 9,0 9,0 9,0 9,1 9,0 9,0 9,1 9,0 8,0 9,0 9,1 9,0 9,0 9,0 9,1 9,0 9,0 8,0 9,1 9,0 9,0 9,0 9,1 9,0 9,0 9,0 9,0 8,1 9,0 9,0 9,0 9,1 9,0 9,0 9,0 9,0 9,0 17,1 9,0 9,0 9,0 9,0 9,1 9,0 9,0 8,0 9,0 9,0 9,1 9,0 9,0 9,0 9,0 9,0 9,0 8,1 9,0 9,0 9,0 9,0 9,0 9,0 9,1 9,0 8,0 9,0 9,0 9,0 9,0 9,0 9,1 9,0 9,0 9,0 8,0 9,0 9,0 9,0 9,0 9,0 9,0 9,1 9,0 8,0 9,0 9,0 9,0 9,0 9,0 9,0 9,0 9,0 9,1 8,0 9,0 9,0 9,0 9,0 9,0 9,0 18,0 9,0 8,0 9,0 9,1 9,0 9,0 9,0 9,0 9,0 9,0 8,0 9,0 9,0 9,0 9,0 9,0 9,0 9,0 9,0 9,0 8,1 9,0 9,0 9,0 9,0 9,0 9,0 9,0 9,0 8,0 9,0 9,0 9,0 9,0 9,0 9,0 9,0 9,0 9,0 8,0 9,0 9,0 9,0 9,0 9,0 9,0 9,0 9,1 8,0 9,0 9,0 9,0 9,0 9,0 9,0 9,0 9,0 9,0 8,0 9,0 9,0 9,0 18,0" id="Drawing_44_0" style="fill:none;stroke:#000000;stroke-width:80;stroke-linejoin:round"/>
 </g>
 <g id="g183" style="visibility:visible">
  <path d="m 4888,18297 9,-5 9,-5 9,-4 9,-5 9,-5 9,-4 9,-5 9,-5 8,-5 9,-4 9,-5 9,-5 9,-5 9,-5 9,-5 9,-5 9,-5 8,-5 9,-5 9,-5 9,-5 9,-5 9,-6 9,-5 9,-5 9,-6 9,-5 8,-5 9,-6 9,-5 9,-6 9,-6 9,-5 9,-6 9,-6 9,-5 8,-6 9,-6 9,-6 9,-6 9,-6 9,-6 9,-6 9,-6 9,-6 9,-6 8,-6 9,-6 9,-7 9,-6 9,-6 9,-6 9,-7 9,-6 9,-7 8,-6 9,-7 9,-6 9,-7 9,-6 9,-7 9,-7 9,-6 9,-7 9,-7 8,-7 9,-7 9,-7 9,-7 9,-7 9,-7 9,-7 9,-7 9,-7 9,-7 8,-7 9,-8 9,-7 9,-7 9,-8 9,-7 9,-8 9,-7 9,-8 8,-7 9,-8 9,-7 9,-8 9,-8 9,-7 9,-8 9,-8 9,-8 9,-8 8,-8 9,-8 9,-8 9,-8 9,-8 9,-8 9,-8 9,-8 9,-8 8,-8 9,-9 9,-8 9,-8 9,-9 9,-8 9,-8 9,-9 9,-8 9,-9 8,-8 9,-9 9,-9 9,-8 9,-9 9,-9 9,-8 9,-9 9,-9 8,-9 9,-9 9,-9 9,-9 9,-9 9,-9 9,-9 9,-9 9,-9 9,-9 8,-9 9,-9 9,-10 9,-9 9,-9 9,-9 9,-10 9,-9 9,-9 9,-10 8,-9 9,-10 9,-9 9,-10 9,-9 9,-10 9,-9 9,-10 9,-10 8,-9 9,-10 9,-10 9,-9 9,-10 9,-10 9,-10 9,-10 9,-10 9,-9 8,-10 9,-10 9,-10 9,-10 9,-10 9,-10 9,-10 9,-10 9,-11 8,-10 9,-10 9,-10 9,-10 9,-10 9,-11 9,-10 9,-10 9,-10 9,-11 8,-10 9,-10 9,-10 9,-11 9,-10 9,-10 9,-11 9,-10 9,-11 8,-10 9,-10 9,-11 9,-10 9,-11 9,-10 9,-11 9,-10 9,-11 9,-10 8,-11 9,-10 9,-11 9,-11 9,-10 9,-11 9,-10 9,-11 9,-11 9,-10 8,-11 9,-10 9,-11 9,-11 9,-10 9,-11 9,-11 9,-10 9,-11 8,-11 9,-10 9,-11 9,-11 9,-10 9,-11 9,-11 9,-10 9,-11 9,-11 8,-10 9,-11 9,-11 9,-10 9,-11 9,-11 9,-10 9,-11 9,-11 8,-10 9,-11 9,-11 9,-10 9,-11 9,-10 9,-11 9,-11 9,-10 9,-11 8,-10 9,-11 9,-10 9,-11 9,-10 9,-11 9,-10 9,-11 9,-10 9,-11 8,-10 9,-11 9,-10 9,-11 9,-10 9,-10 9,-11 9,-10 9,-11 8,-10 9,-10 9,-10 9,-11 9,-10 9,-10 9,-10 9,-10 9,-11 9,-10 8,-10 9,-10 9,-10 9,-10 9,-10 9,-10 9,-10 9,-10 9,-10 8,-10 9,-10 9,-10 9,-9 9,-10 9,-10 9,-10 9,-9 9,-10 9,-10 8,-9 9,-10 9,-9 9,-10 9,-9 9,-10 9,-9 9,-10 9,-9 8,-9 9,-10 9,-9 9,-9 9,-9 9,-10 9,-9 9,-9 9,-9 9,-9 8,-9 9,-9 9,-9 9,-9 9,-8 9,-9 9,-9 9,-9 9,-8 9,-9 8,-9 9,-8 9,-9 9,-8 9,-9 9,-8 9,-8 9,-9 9,-8 8,-8 9,-8 9,-8 9,-8 9,-8 9,-8 9,-8 9,-8 9,-8 9,-8 8,-8 9,-7 9,-8 9,-7 9,-8 9,-8 9,-7 9,-7 9,-8 8,-7 9,-7 9,-7 9,-8 9,-7 9,-7 9,-7 9,-7 9,-6 9,-7 8,-7 9,-7 9,-6 9,-7 9,-7 9,-6 9,-7 9,-6 9,-6 8,-7 9,-6 9,-6 9,-6 9,-6 9,-6 9,-6 9,-6 9,-6 9,-6 8,-5 9,-6 9,-6 9,-5 9,-6 9,-5 9,-5 9,-6 9,-5 9,-5 8,-5 9,-5 9,-5 9,-5 9,-5 9,-5 9,-5 9,-4 9,-5 8,-5 9,-4 9,-5 9,-4 9,-4 9,-5 9,-4 9,-4 9,-4 9,-4 8,-4 9,-4 9,-4 9,-3 9,-4 9,-4 9,-3 9,-4 9,-3 8,-4 9,-2 9,-3 9,-3 9,-4 9,-3 9,-3 9,-2 9,-3 9,-3 8,-3 9,-2 9,-3 9,-3 9,-2 9,-3 9,-2 9,-2 9,-2 8,-2 9,-3 9,-2 9,-2 9,-1 9,-2 9,-2 9,-2 9,-1 17,-3 9,-2 9,-1 9,-1 9,-2 9,-1 9,-1 9,-1 9,-1 9,-1 8,-1 9,-1 9,0 9,-1 9,-1 9,0 9,0 9,-1 9,0 8,0 9,-1 9,0 9,0 9,0 9,0 9,0 9,1 9,0 9,0 8,0 9,1 9,0 9,1 9,1 9,0 9,1 9,1 9,1 8,1 9,1 9,1 9,1 9,1 9,2 9,1 9,1 9,2 9,1 8,2 9,2 9,1 9,2 9,2 9,2 9,2 9,2 9,2 8,2 9,2 9,2 9,3 9,2 9,2 9,3 9,2 9,3 9,3 8,2 9,3 9,3 9,3 9,3 9,3 9,3 9,3 9,2 9,3 8,4 9,3 9,3 9,4 9,3 9,4 9,3 9,4 9,4 8,4 9,3 9,4 9,4 9,4 9,4 9,4 9,5 9,4 9,4 8,4 9,5 9,4 9,5 9,4 9,5 9,4 9,5 9,5 8,4 9,5 9,5 9,5 9,5 9,5 9,5 9,5 9,5 9,5 8,6 9,5 9,5 9,6 9,5 9,6 9,5 9,6 9,5 8,6 9,6 9,5 9,6 9,6 9,6 9,6 9,6 9,6 9,6 8,6 9,6 9,6 9,6 9,6 9,7 9,6 9,6 9,7 9,6 8,7 9,6 9,7 9,6 9,7 9,6 9,7 9,7 9,7 8,6 9,7 9,7 9,7 9,7 9,7 9,7 9,7 9,7 9,7 8,7 9,7 9,7 9,8 9,7 9,7 9,7 9,8 9,7 8,7 9,8 9,7 9,8 9,7 9,8 9,7 9,8 9,8 9,7 8,8 9,8 9,7 9,8 8,8 9,8 9,7 9,8 9,8 9,8 8,8 9,8 9,8 9,8 9,8 9,8 9,8 9,8 9,8 8,8 9,8 9,8 9,8 9,8 9,9 9,8 9,8 9,8 9,9 8,8 9,8 9,8 9,9 9,8 9,8 9,9 9,8 9,9 8,8 9,8 9,9 9,8 9,9 9,8 9,9 9,8 9,9 9,8 8,9 9,8 9,9 9,8 9,9 9,9 9,8 9,9 9,8 8,9 9,9 9,8 9,9 9,9 9,8 9,9 9,9 9,8 9,9 8,9 9,8 9,9 9,9 9,8 9,9 9,9 9,9 9,8 9,9 8,9 9,8 9,9 9,9 9,9 9,8 9,9 9,9 9,9 8,8 9,9 9,9 9,9 9,8 9,9 9,9 9,9 9,8 9,9 8,9 9,9 9,8 9,9 9,9 9,8 9,9 9,9 9,9 8,8 9,9 9,9 9,8 9,9 9,9 9,8 9,9 9,9 9,8 8,9 9,9 9,8 9,9 9,9 9,8 9,9 9,8 9,9 8,9 9,8 9,9 9,8 9,9 9,9 9,8 9,9 9,8 9,9 8,8 9,9 9,8 9,9 9,8 9,9 9,8 9,8 9,9 9,8 8,9 9,8 9,8 9,9 9,8 9,8 9,9 9,8 9,8 8,9 9,8 9,8 9,8 9,9 9,8 9,8 9,8 9,8 9,9 8,8 9,8 9,8 9,8 9,8 9,8 9,8 9,8 9,8 8,8 9,8 9,8 9,8 9,8 9,8 9,8 9,8 9,8 9,8 8,8 9,8 9,7 9,8 9,8 9,8 9,7 9,8 9,8 8,8 9,7 9,8 9,8 9,7 9,8 9,7 9,8 9,7 9,8 8,7 9,8 9,7 9,8 9,7 9,8 9,7 9,7 9,8 9,7 8,7 9,8 9,7 9,7 9,7 9,8 9,7 9,7 9,7 8,7 9,8 9,7 9,7 9,7 9,7 9,7 9,7 9,7 9,7 8,7 9,7 9,6 9,7 9,7 9,7 9,7 9,7 9,6 8,7 9,7 9,6 9,7 9,7 9,6 9,7 9,7 9,6 9,7 8,6 9,7 9,6 9,7 9,6 9,6 9,7 9,6 9,7 8,6 9,6 9,6 9,7 9,6 9,6 9,6 9,7 9,6 9,6 8,6 9,6 9,6 9,6 9,6 9,6 9,6 9,6 9,6 9,6 8,6 9,6 9,6 9,5 9,6 9,6 9,6 9,5 9,6 8,6 9,5 9,6 9,6 9,5 9,6 9,5 9,6 9,6 9,5 8,5 9,6 9,5 9,6 9,5 9,5 9,6 9,5 9,5 8,6 9,5 9,5 9,5 9,5 9,6 9,5 9,5 9,5 9,5 8,5 9,5 9,5 9,5 9,5 9,5 9,5 9,5 9,5 8,5 9,5 9,4 9,5 9,5 9,5 9,4 9,5 9,5 9,4 8,5 9,5 9,4 9,5 9,4 9,5 9,5 9,4 9,4 9,5 8,4 9,5 9,4 9,5 9,4 9,4 9,4 9,5 9,4 8,4 9,4 9,5 9,4 9,4 9,4 9,4 9,4 9,4 9,5 8,4 9,4 9,4 9,4 9,4 9,3 9,4 9,4 9,4 8,4 9,4 9,4 9,4 9,3 9,4 9,4 9,4 9,3 9,4 8,4 9,4 9,3 9,4 9,3 9,4 9,4 9,3 9,4 8,3 9,4 9,3 9,4 9,3 9,3 9,4 9,3 9,4 9,3 8,3 9,4 9,3 9,3 9,3 9,4 9,3 9,3 9,3 9,3 8,4 9,3 9,3 9,3 9,3 9,3 9,3 9,3 9,3 8,3 9,3 9,3 9,3 9,3 9,3 9,3 9,3 9,3 9,2 8,3 9,3 9,3 9,3 9,2 9,3 9,3 9,3 9,2 8,3 9,3 9,2 9,3 9,3 9,2 9,3 9,3 9,2 9,3 8,2 9,3 9,2 9,3 9,2 9,3 9,2 9,3 9,2 9,2 17,5 9,3 9,2 9,2 9,3 9,2 9,2 9,3 8,2 9,2 9,2 9,2 9,3 9,2 9,2 9,2 9,2 9,3 8,2 9,2 9,2 9,2 9,2 9,2 9,2 9,2 9,2 8,2 9,2 9,2 9,2 9,2 9,2 9,2 9,2 9,2 9,2 8,2 9,2 9,2 9,1 9,2 9,2 9,2 9,2 9,1 8,2 9,2 9,2 9,2 9,1 9,2 9,2 9,1 9,2 9,2 8,2 9,1 9,2 9,1 9,2 9,2 9,1 9,2 9,2 9,1 8,2 9,1 9,2 9,1 9,2 9,1 9,2 9,1 9,2 8,1 9,2 9,1 9,2 9,1 9,2 9,1 9,1 9,2 9,1 8,2 9,1 9,1 9,2 9,1 9,1 9,2 9,1 9,1 8,2 9,1 9,1 9,1 9,2 9,1 9,1 9,1 9,2 9,1 8,1 9,1 9,1 9,2 9,1 9,1 9,1 9,1 9,1 8,2 9,1 9,1 9,1 9,1 9,1 9,1 9,1 9,1 9,1 8,1 9,1 9,2 9,1 18,2 9,1 9,1 9,1 9,1 8,1 9,1 9,1 9,1 9,0 9,1 9,1 9,1 9,1 8,1 9,1 9,1 9,1 9,1 9,1 9,1 9,0 9,1 9,1 8,1 9,1 9,1 9,1 9,0 9,1 9,1 9,1 9,1 8,0 9,1 9,1 9,1 9,1 9,0 9,1 9,1 9,1 9,0 8,1 9,1 9,0 9,1 9,1 9,1 9,0 9,1 9,1 8,0 9,1 9,1 9,0 9,1 9,1 9,0 9,1 9,1 9,0 8,1 9,1 9,0 9,1 9,1 9,0 9,1 9,0 9,1 9,1 8,0 9,1 9,0 9,1 9,1 9,0 9,1 9,0 9,1 8,0 9,1 9,0 9,1 9,1 9,0 9,1 9,0 9,1 9,0 8,1 9,0 9,1 9,0 9,1 9,0 9,1 9,0 9,1 8,0 9,1 9,0 9,0 9,1 9,0 9,1 9,0 9,1 9,0 8,1 9,0 9,0 9,1 9,0 9,1 9,0 9,0 9,1 8,0 9,1 9,0 9,0 9,1 9,0 9,1 9,0 9,0 9,1 8,0 9,1 9,0 9,0 9,1 9,0 9,0 9,1 9,0 9,1 8,0 9,0 9,1 9,0 9,0 9,1 9,0 9,0 9,1 8,0 9,0 9,0 9,1 9,0 9,0 9,1 9,0 9,0 9,1 8,0 9,0 9,0 9,1 9,0 9,0 9,1 9,0 9,0 8,0 9,1 9,0 9,0 9,0 9,1 9,0 9,0 9,0 9,1 8,0 9,0 9,0 9,1 9,0 9,0 9,0 9,1 9,0 8,0 9,0 9,1 9,0 9,0 9,0 9,0 9,1 9,0 9,0 8,0 9,0 9,1 9,0 9,0 9,0 9,0 9,1 9,0 9,0 8,0 9,0 9,1 9,0 9,0 9,0 9,0 9,1 9,0 8,0 9,0 9,0 9,1 9,0 9,0" id="Drawing_45_0" style="fill:none;stroke:#ff420e;stroke-width:80;stroke-linejoin:round"/>
 </g>
 <g id="g327" style="visibility:visible">
  <path d="m 14774,15801 -895,0 0,-1808 1790,0 0,1808 -895,0 z" id="path329" style="fill:#e6e6e6;stroke:none"/>
  <rect height="1811" id="rect331" style="fill:none;stroke:none" width="1792" x="13879" y="13992"/>
 </g>
 <g id="g333" style="visibility:visible">
  <path d="m 13995,14343 800,0" id="Drawing_64_0" style="fill:none;stroke:#ff420e;stroke-width:50;stroke-linejoin:round"/>
 </g>
 <g id="g336" style="visibility:visible">
  <path d="m 13995,14895 800,0" id="Drawing_65_0" style="fill:none;stroke:#000000;stroke-width:50;stroke-linejoin:round"/>
 </g>
 <g id="g339" style="visibility:visible">
  <path d="m 13995,15448 800,0" id="Drawing_66_0" style="fill:none;stroke:#ffd320;stroke-width:50;stroke-linejoin:round"/>
 </g>
 <g id="Drawing_67" style="visibility:visible">
  <rect height="394" id="rect343" style="fill:none;stroke:none" width="649" x="14895" y="14140"/>
 </g>
 <g id="Drawing_68" style="visibility:visible">
  <rect height="394" id="rect352" style="fill:none;stroke:none" width="649" x="14895" y="14692"/>
 </g>
 <g id="Drawing_69" style="visibility:visible">
  <rect height="394" id="rect361" style="fill:none;stroke:none" width="649" x="14895" y="15245"/>
 </g>
 <g id="Drawing_70" style="visibility:visible">
  <rect height="438" id="rect370" style="fill:none;stroke:none" width="198" x="18731" y="18893"/>
 </g>
 <g id="Drawing_71" style="visibility:visible">
  <rect height="438" id="rect377" style="fill:none;stroke:none" width="934" x="1633" y="10604"/>
 </g>

 <g id="all_text" style="fill:black; font-family:DejaVu Serif, Liberation Serif, serif; font-size:340">

  <g text-anchor="middle">
    <text x="2518" y="19299">-5</text>
    <text x="4297" y="19299">-4</text>
    <text x="6076" y="19299">-3</text>
    <text x="7855" y="19299">-2</text>
    <text x="9634" y="19299">-1</text>
    <text x="11475" y="19299">0</text>
    <text x="13254" y="19299">1</text>
    <text x="15033" y="19299">2</text>
    <text x="16812" y="19299">3</text>
    <text x="18592" y="19299">4</text>
  </g>

  <g text-anchor="end">
    <text x="2320" y="18849">0</text>
    <text x="2320" y="17610">0.1</text>
    <text x="2320" y="16371">0.2</text>
    <text x="2320" y="15131">0.3</text>
    <text x="2320" y="13893">0.4</text>
    <text x="2320" y="12655">0.5</text>
    <text x="2320" y="11415">0.6</text>
  </g>

  <g>
    <text x="14878" y="14453">β=1</text>
    <text x="14878" y="15005">β=2</text>
    <text x="14878" y="15558">β=4</text>
  </g>

  <g font-size="440">
    <text x="18800" y="18900">s</text>
    <text x="2100" y="10500"><tspan 
      y="10900" font-size="440">F</tspan><tspan 
      x="2320" y="11040" font-size="320">β</tspan><tspan 
      y="10900" font-size="440">(s)</tspan></text> 
  </g>

 </g>
</svg>